<svg xmlns="http://www.w3.org/2000/svg" xmlns:xlink="http://www.w3.org/1999/xlink" contentStyleType="text/css" data-diagram-type="ACTIVITY" height="1490px" preserveAspectRatio="none" style="width:825px;height:1490px;background:#FFFFFF;" version="1.1" viewBox="0 0 825 1490" width="825px" zoomAndPan="magnify"><defs/><g><rect fill="none" height="26.0638" style="stroke:none;stroke-width:1;" width="792.7003" x="15" y="13.684"/><ellipse cx="142.1226" cy="54.7478" fill="#222222" rx="10" ry="10" style="stroke:#222222;stroke-width:1;"/><rect fill="#F1F1F1" height="37.3761" rx="12.5" ry="12.5" style="stroke:#181818;stroke-width:0.5;" width="136.9409" x="73.6522" y="84.7478"/><text fill="#000000" font-family="sans-serif" font-size="12" lengthAdjust="spacing" textLength="116.9409" x="83.6522" y="108.6679">&#21457;&#24067;&#31454;&#36187;&#27963;&#21160; (Active)</text><rect fill="#F1F1F1" height="37.3761" rx="12.5" ry="12.5" style="stroke:#181818;stroke-width:0.5;" width="128.0008" x="78.1222" y="550.3807"/><text fill="#000000" font-family="sans-serif" font-size="12" lengthAdjust="spacing" textLength="108.0008" x="88.1222" y="574.3008">&#26597;&#30475;&#24453;&#23457;&#26680;&#22242;&#38431;&#21015;&#34920;</text><polygon fill="#F1F1F1" points="95.516,607.7568,188.7293,607.7568,200.7293,619.7568,188.7293,631.7568,95.516,631.7568,83.516,619.7568,95.516,607.7568" style="stroke:#181818;stroke-width:0.5;"/><text fill="#000000" font-family="sans-serif" font-size="11" lengthAdjust="spacing" textLength="93.2133" x="95.516" y="624.5527">&#26680;&#39564;&#36164;&#26009;&#26159;&#21542;&#21512;&#35268;?</text><text fill="#000000" font-family="sans-serif" font-size="11" lengthAdjust="spacing" textLength="32.9998" x="50.5162" y="616.5888">&#19981;&#21512;&#35268;</text><text fill="#000000" font-family="sans-serif" font-size="11" lengthAdjust="spacing" textLength="21.9998" x="200.7293" y="616.5888">&#21512;&#35268;</text><rect fill="#F1F1F1" height="37.3761" rx="12.5" ry="12.5" style="stroke:#181818;stroke-width:0.5;" width="103.7486" x="21" y="641.7568"/><text fill="#000000" font-family="sans-serif" font-size="12" lengthAdjust="spacing" textLength="83.7486" x="31" y="665.6769">&#39539;&#22238; (Rejected)</text><ellipse cx="72.8743" cy="710.1329" fill="none" rx="11" ry="11" style="stroke:#222222;stroke-width:1;"/><ellipse cx="72.8743" cy="710.1329" fill="#222222" rx="6" ry="6" style="stroke:#222222;stroke-width:1;"/><rect fill="#F1F1F1" height="37.3761" rx="12.5" ry="12.5" style="stroke:#181818;stroke-width:0.5;" width="133.2448" x="144.7486" y="641.7568"/><text fill="#000000" font-family="sans-serif" font-size="12" lengthAdjust="spacing" textLength="113.2448" x="154.7486" y="665.6769">&#36890;&#36807;&#23457;&#26680; (Approved)</text><rect fill="#F1F1F1" height="37.3761" rx="12.5" ry="12.5" style="stroke:#181818;stroke-width:0.5;" width="92.0005" x="96.1224" y="955.5332"/><text fill="#000000" font-family="sans-serif" font-size="12" lengthAdjust="spacing" textLength="72.0005" x="106.1224" y="979.4533">&#20915;&#23450;&#32467;&#26463;&#36187;&#20107;</text><rect fill="#F1F1F1" height="37.3761" rx="12.5" ry="12.5" style="stroke:#181818;stroke-width:0.5;" width="103.3766" x="90.4343" y="1012.9093"/><text fill="#000000" font-family="sans-serif" font-size="12" lengthAdjust="spacing" textLength="83.3766" x="100.4343" y="1036.8294">&#28857;&#20987;"&#24402;&#26723;&#36187;&#20107;"</text><line style="stroke:#000000;stroke-width:1.5;" x1="15" x2="15" y1="13.684" y2="1478.8141"/><rect fill="#F1F1F1" height="37.3761" rx="12.5" ry="12.5" style="stroke:#181818;stroke-width:0.5;" width="116.0007" x="399.8541" y="142.1239"/><text fill="#000000" font-family="sans-serif" font-size="12" lengthAdjust="spacing" textLength="96.0007" x="409.8541" y="166.044">&#27983;&#35272;&#36827;&#34892;&#20013;&#30340;&#31454;&#36187;</text><rect fill="#F1F1F1" height="37.3761" rx="12.5" ry="12.5" style="stroke:#181818;stroke-width:0.5;" width="179.5052" x="368.1018" y="199.5"/><text fill="#000000" font-family="sans-serif" font-size="12" lengthAdjust="spacing" textLength="159.5052" x="378.1018" y="223.4201">&#21019;&#24314;&#22242;&#38431; (&#25351;&#23450;&#25351;&#23548;&#32769;&#24072;/&#38431;&#21592;)</text><rect fill="#F1F1F1" height="37.3761" rx="12.5" ry="12.5" style="stroke:#181818;stroke-width:0.5;" width="137.5049" x="389.102" y="256.8762"/><text fill="#000000" font-family="sans-serif" font-size="12" lengthAdjust="spacing" textLength="117.5049" x="399.102" y="280.7963">&#19978;&#20256;&#21442;&#36187;&#20316;&#21697; (Works)</text><polygon fill="#F1F1F1" points="433.2476,314.2523,482.4612,314.2523,494.4612,326.2523,482.4612,338.2523,433.2476,338.2523,421.2476,326.2523,433.2476,314.2523" style="stroke:#181818;stroke-width:0.5;"/><text fill="#000000" font-family="sans-serif" font-size="11" lengthAdjust="spacing" textLength="49.2137" x="433.2476" y="331.0483">&#26159;&#21542;&#33719;&#22870;?</text><text fill="#000000" font-family="sans-serif" font-size="11" lengthAdjust="spacing" textLength="10.9999" x="410.2477" y="323.0843">&#26159;</text><text fill="#000000" font-family="sans-serif" font-size="11" lengthAdjust="spacing" textLength="10.9999" x="494.4612" y="323.0843">&#21542;</text><rect fill="#F1F1F1" height="37.3761" rx="12.5" ry="12.5" style="stroke:#181818;stroke-width:0.5;" width="168.9091" x="294.7794" y="348.2523"/><text fill="#000000" font-family="sans-serif" font-size="12" lengthAdjust="spacing" textLength="148.9091" x="304.7794" y="372.1724">&#19978;&#20256;&#33719;&#22870;&#35777;&#20070; (Attachment)</text><rect fill="#F1F1F1" height="37.3761" rx="12.5" ry="12.5" style="stroke:#181818;stroke-width:0.5;" width="182.4812" x="287.9934" y="405.6284"/><text fill="#000000" font-family="sans-serif" font-size="12" lengthAdjust="spacing" textLength="162.4812" x="297.9934" y="429.5485">&#22635;&#20889;&#35777;&#20070;&#32534;&#21495; (temp_cert_no)</text><rect fill="#F1F1F1" height="37.3761" rx="12.5" ry="12.5" style="stroke:#181818;stroke-width:0.5;" width="68.0004" x="345.2338" y="463.0045"/><text fill="#000000" font-family="sans-serif" font-size="12" lengthAdjust="spacing" textLength="48.0004" x="355.2338" y="486.9246">&#25552;&#20132;&#23457;&#26680;</text><rect fill="#F1F1F1" height="37.3761" rx="12.5" ry="12.5" style="stroke:#181818;stroke-width:0.5;" width="92.0005" x="490.4746" y="348.2523"/><text fill="#000000" font-family="sans-serif" font-size="12" lengthAdjust="spacing" textLength="72.0005" x="500.4746" y="372.1724">&#31561;&#24453;&#27604;&#36187;&#32467;&#26463;</text><polygon fill="#F1F1F1" points="457.8544,506.3807,469.8544,518.3807,457.8544,530.3807,445.8544,518.3807,457.8544,506.3807" style="stroke:#181818;stroke-width:0.5;"/><line style="stroke:#000000;stroke-width:1.5;" x1="281.9934" x2="281.9934" y1="13.684" y2="1478.8141"/><rect fill="none" height="204.4003" style="stroke:#000000;stroke-width:1.5;" width="210.2092" x="592.4751" y="731.1329"/><path d="M693.5027,731.1329 L693.5027,744.4048 L683.5027,754.4048 L592.4751,754.4048" fill="none" style="stroke:#000000;stroke-width:1.5;"/><text fill="#000000" font-family="sans-serif" font-size="14" lengthAdjust="spacing" textLength="91.0276" x="595.4751" y="748.3728">&#20107;&#21153;: &#33719;&#22870;&#22266;&#21270;</text><rect fill="#F1F1F1" height="37.3761" rx="12.5" ry="12.5" style="stroke:#181818;stroke-width:0.5;" width="190.2092" x="602.4751" y="771.4048"/><text fill="#000000" font-family="sans-serif" font-size="12" lengthAdjust="spacing" textLength="170.2092" x="612.4751" y="795.3249">&#21019;&#24314; Certificate &#35760;&#24405; (&#22797;&#21046;&#25991;&#20214;)</text><rect fill="#F1F1F1" height="37.3761" rx="12.5" ry="12.5" style="stroke:#181818;stroke-width:0.5;" width="167.9491" x="613.6052" y="828.7809"/><text fill="#000000" font-family="sans-serif" font-size="12" lengthAdjust="spacing" textLength="147.9491" x="623.6052" y="852.701">&#21019;&#24314; Award &#35760;&#24405; (&#20851;&#32852;&#20154;&#21592;)</text><rect fill="#F1F1F1" height="37.3761" rx="12.5" ry="12.5" style="stroke:#181818;stroke-width:0.5;" width="105.0806" x="645.0394" y="886.1571"/><text fill="#000000" font-family="sans-serif" font-size="12" lengthAdjust="spacing" textLength="85.0806" x="655.0394" y="910.0772">&#38145;&#23450; Team &#29366;&#24577;</text><rect fill="none" height="319.1525" style="stroke:#000000;stroke-width:1.5;" width="173.081" x="611.0393" y="1060.2854"/><path d="M712.0669,1060.2854 L712.0669,1073.5573 L702.0669,1083.5573 L611.0393,1083.5573" fill="none" style="stroke:#000000;stroke-width:1.5;"/><text fill="#000000" font-family="sans-serif" font-size="14" lengthAdjust="spacing" textLength="91.0276" x="614.0393" y="1077.5253">&#20107;&#21153;: &#24402;&#26723;&#28165;&#29702;</text><rect fill="#F1F1F1" height="37.3761" rx="12.5" ry="12.5" style="stroke:#181818;stroke-width:0.5;" width="116.0007" x="639.5794" y="1100.5573"/><text fill="#000000" font-family="sans-serif" font-size="12" lengthAdjust="spacing" textLength="96.0007" x="649.5794" y="1124.4774">&#32479;&#35745;&#26368;&#32456;&#21442;&#36187;&#20154;&#25968;</text><rect fill="#F1F1F1" height="37.3761" rx="12.5" ry="12.5" style="stroke:#181818;stroke-width:0.5;" width="116.0007" x="639.5794" y="1157.9335"/><text fill="#000000" font-family="sans-serif" font-size="12" lengthAdjust="spacing" textLength="96.0007" x="649.5794" y="1181.8535">&#32479;&#35745;&#26368;&#32456;&#33719;&#22870;&#20154;&#25968;</text><rect fill="#F1F1F1" height="37.3761" rx="12.5" ry="12.5" style="stroke:#181818;stroke-width:0.5;" width="131.6848" x="631.7373" y="1215.3096"/><text fill="#000000" font-family="sans-serif" font-size="12" lengthAdjust="spacing" textLength="111.6848" x="641.7373" y="1239.2297">&#26631;&#35760;&#36187;&#20107;&#20026; Archived</text><rect fill="#F1F1F1" height="37.3761" rx="12.5" ry="12.5" style="stroke:#181818;stroke-width:0.5;" width="153.081" x="621.0393" y="1272.6857"/><text fill="#000000" font-family="sans-serif" font-size="12" lengthAdjust="spacing" textLength="133.081" x="631.0393" y="1296.6058">&#38144;&#27585;&#25152;&#26377;&#20851;&#32852; Team &#35760;&#24405;</text><rect fill="#F1F1F1" height="37.3761" rx="12.5" ry="12.5" style="stroke:#181818;stroke-width:0.5;" width="153.081" x="621.0393" y="1330.0618"/><text fill="#000000" font-family="sans-serif" font-size="12" lengthAdjust="spacing" textLength="133.081" x="631.0393" y="1353.9819">&#29289;&#29702;&#21024;&#38500; Team &#20020;&#26102;&#25991;&#20214;</text><rect fill="#F1F1F1" height="37.3761" rx="12.5" ry="12.5" style="stroke:#181818;stroke-width:0.5;" width="182.3372" x="606.4111" y="1399.4379"/><text fill="#000000" font-family="sans-serif" font-size="12" lengthAdjust="spacing" textLength="162.3372" x="616.4111" y="1423.358">&#20445;&#30041; Award &#21644; Event &#32479;&#35745;&#25968;&#25454;</text><ellipse cx="697.5797" cy="1467.8141" fill="none" rx="11" ry="11" style="stroke:#222222;stroke-width:1;"/><ellipse cx="697.5797" cy="1467.8141" fill="#222222" rx="6" ry="6" style="stroke:#222222;stroke-width:1;"/><line style="stroke:#000000;stroke-width:1.5;" x1="586.4751" x2="586.4751" y1="13.684" y2="1478.8141"/><line style="stroke:#000000;stroke-width:1.5;" x1="806.6844" x2="806.6844" y1="13.684" y2="1478.8141"/><line style="stroke:#181818;stroke-width:1;" x1="142.1226" x2="142.1226" y1="64.7478" y2="84.7478"/><polygon fill="#181818" points="138.1226,74.7478,142.1226,84.7478,146.1226,74.7478,142.1226,78.7478" style="stroke:#181818;stroke-width:1;"/><line style="stroke:#181818;stroke-width:1;" x1="72.8743" x2="72.8743" y1="679.1329" y2="699.1329"/><polygon fill="#181818" points="68.8743,689.1329,72.8743,699.1329,76.8743,689.1329,72.8743,693.1329" style="stroke:#181818;stroke-width:1;"/><line style="stroke:#181818;stroke-width:1;" x1="83.516" x2="72.8743" y1="619.7568" y2="619.7568"/><line style="stroke:#181818;stroke-width:1;" x1="72.8743" x2="72.8743" y1="619.7568" y2="641.7568"/><polygon fill="#181818" points="68.8743,631.7568,72.8743,641.7568,76.8743,631.7568,72.8743,635.7568" style="stroke:#181818;stroke-width:1;"/><line style="stroke:#181818;stroke-width:1;" x1="200.7293" x2="211.371" y1="619.7568" y2="619.7568"/><line style="stroke:#181818;stroke-width:1;" x1="211.371" x2="211.371" y1="619.7568" y2="641.7568"/><polygon fill="#181818" points="207.371,631.7568,211.371,641.7568,215.371,631.7568,211.371,635.7568" style="stroke:#181818;stroke-width:1;"/><line style="stroke:#181818;stroke-width:1;" x1="211.371" x2="211.371" y1="679.1329" y2="733.7689"/><line style="stroke:#181818;stroke-width:1;" x1="211.371" x2="697.5797" y1="733.7689" y2="733.7689"/><line style="stroke:#181818;stroke-width:1;" x1="697.5797" x2="697.5797" y1="733.7689" y2="771.4048"/><polygon fill="#181818" points="693.5797,761.4048,697.5797,771.4048,701.5797,761.4048,697.5797,765.4048" style="stroke:#181818;stroke-width:1;"/><line style="stroke:#181818;stroke-width:1;" x1="142.1226" x2="142.1226" y1="587.7568" y2="607.7568"/><polygon fill="#181818" points="138.1226,597.7568,142.1226,607.7568,146.1226,597.7568,142.1226,601.7568" style="stroke:#181818;stroke-width:1;"/><line style="stroke:#181818;stroke-width:1;" x1="142.1226" x2="142.1226" y1="992.9093" y2="1012.9093"/><polygon fill="#181818" points="138.1226,1002.9093,142.1226,1012.9093,146.1226,1002.9093,142.1226,1006.9093" style="stroke:#181818;stroke-width:1;"/><line style="stroke:#181818;stroke-width:1;" x1="457.8544" x2="457.8544" y1="179.5" y2="199.5"/><polygon fill="#181818" points="453.8544,189.5,457.8544,199.5,461.8544,189.5,457.8544,193.5" style="stroke:#181818;stroke-width:1;"/><line style="stroke:#181818;stroke-width:1;" x1="457.8544" x2="457.8544" y1="236.8762" y2="256.8762"/><polygon fill="#181818" points="453.8544,246.8762,457.8544,256.8762,461.8544,246.8762,457.8544,250.8762" style="stroke:#181818;stroke-width:1;"/><line style="stroke:#181818;stroke-width:1;" x1="379.234" x2="379.234" y1="385.6284" y2="405.6284"/><polygon fill="#181818" points="375.234,395.6284,379.234,405.6284,383.234,395.6284,379.234,399.6284" style="stroke:#181818;stroke-width:1;"/><line style="stroke:#181818;stroke-width:1;" x1="379.234" x2="379.234" y1="443.0045" y2="463.0045"/><polygon fill="#181818" points="375.234,453.0045,379.234,463.0045,383.234,453.0045,379.234,457.0045" style="stroke:#181818;stroke-width:1;"/><line style="stroke:#181818;stroke-width:1;" x1="421.2476" x2="379.234" y1="326.2523" y2="326.2523"/><line style="stroke:#181818;stroke-width:1;" x1="379.234" x2="379.234" y1="326.2523" y2="348.2523"/><polygon fill="#181818" points="375.234,338.2523,379.234,348.2523,383.234,338.2523,379.234,342.2523" style="stroke:#181818;stroke-width:1;"/><line style="stroke:#181818;stroke-width:1;" x1="494.4612" x2="536.4749" y1="326.2523" y2="326.2523"/><line style="stroke:#181818;stroke-width:1;" x1="536.4749" x2="536.4749" y1="326.2523" y2="348.2523"/><polygon fill="#181818" points="532.4749,338.2523,536.4749,348.2523,540.4749,338.2523,536.4749,342.2523" style="stroke:#181818;stroke-width:1;"/><line style="stroke:#181818;stroke-width:1;" x1="379.234" x2="379.234" y1="500.3807" y2="518.3807"/><line style="stroke:#181818;stroke-width:1;" x1="379.234" x2="445.8544" y1="518.3807" y2="518.3807"/><polygon fill="#181818" points="435.8544,514.3807,445.8544,518.3807,435.8544,522.3807,439.8544,518.3807" style="stroke:#181818;stroke-width:1;"/><line style="stroke:#181818;stroke-width:1;" x1="536.4749" x2="536.4749" y1="385.6284" y2="518.3807"/><line style="stroke:#181818;stroke-width:1;" x1="536.4749" x2="469.8544" y1="518.3807" y2="518.3807"/><polygon fill="#181818" points="479.8544,514.3807,469.8544,518.3807,479.8544,522.3807,475.8544,518.3807" style="stroke:#181818;stroke-width:1;"/><line style="stroke:#181818;stroke-width:1;" x1="457.8544" x2="457.8544" y1="294.2523" y2="314.2523"/><polygon fill="#181818" points="453.8544,304.2523,457.8544,314.2523,461.8544,304.2523,457.8544,308.2523" style="stroke:#181818;stroke-width:1;"/><line style="stroke:#181818;stroke-width:1;" x1="697.5797" x2="697.5797" y1="808.7809" y2="828.7809"/><polygon fill="#181818" points="693.5797,818.7809,697.5797,828.7809,701.5797,818.7809,697.5797,822.7809" style="stroke:#181818;stroke-width:1;"/><line style="stroke:#181818;stroke-width:1;" x1="697.5797" x2="697.5797" y1="866.1571" y2="886.1571"/><polygon fill="#181818" points="693.5797,876.1571,697.5797,886.1571,701.5797,876.1571,697.5797,880.1571" style="stroke:#181818;stroke-width:1;"/><line style="stroke:#181818;stroke-width:1;" x1="697.5797" x2="697.5797" y1="1137.9335" y2="1157.9335"/><polygon fill="#181818" points="693.5797,1147.9335,697.5797,1157.9335,701.5797,1147.9335,697.5797,1151.9335" style="stroke:#181818;stroke-width:1;"/><line style="stroke:#181818;stroke-width:1;" x1="697.5797" x2="697.5797" y1="1195.3096" y2="1215.3096"/><polygon fill="#181818" points="693.5797,1205.3096,697.5797,1215.3096,701.5797,1205.3096,697.5797,1209.3096" style="stroke:#181818;stroke-width:1;"/><line style="stroke:#181818;stroke-width:1;" x1="697.5797" x2="697.5797" y1="1252.6857" y2="1272.6857"/><polygon fill="#181818" points="693.5797,1262.6857,697.5797,1272.6857,701.5797,1262.6857,697.5797,1266.6857" style="stroke:#181818;stroke-width:1;"/><line style="stroke:#181818;stroke-width:1;" x1="697.5797" x2="697.5797" y1="1310.0618" y2="1330.0618"/><polygon fill="#181818" points="693.5797,1320.0618,697.5797,1330.0618,701.5797,1320.0618,697.5797,1324.0618" style="stroke:#181818;stroke-width:1;"/><line style="stroke:#181818;stroke-width:1;" x1="697.5797" x2="697.5797" y1="1367.4379" y2="1399.4379"/><polygon fill="#181818" points="693.5797,1389.4379,697.5797,1399.4379,701.5797,1389.4379,697.5797,1393.4379" style="stroke:#181818;stroke-width:1;"/><line style="stroke:#181818;stroke-width:1;" x1="697.5797" x2="697.5797" y1="1436.8141" y2="1456.8141"/><polygon fill="#181818" points="693.5797,1446.8141,697.5797,1456.8141,701.5797,1446.8141,697.5797,1450.8141" style="stroke:#181818;stroke-width:1;"/><line style="stroke:#181818;stroke-width:1;" x1="142.1226" x2="142.1226" y1="122.1239" y2="127.1239"/><line style="stroke:#181818;stroke-width:1;" x1="142.1226" x2="457.8544" y1="127.1239" y2="127.1239"/><line style="stroke:#181818;stroke-width:1;" x1="457.8544" x2="457.8544" y1="127.1239" y2="142.1239"/><polygon fill="#181818" points="453.8544,132.1239,457.8544,142.1239,461.8544,132.1239,457.8544,136.1239" style="stroke:#181818;stroke-width:1;"/><line style="stroke:#181818;stroke-width:1;" x1="457.8544" x2="457.8544" y1="530.3807" y2="535.3807"/><line style="stroke:#181818;stroke-width:1;" x1="457.8544" x2="142.1226" y1="535.3807" y2="535.3807"/><line style="stroke:#181818;stroke-width:1;" x1="142.1226" x2="142.1226" y1="535.3807" y2="550.3807"/><polygon fill="#181818" points="138.1226,540.3807,142.1226,550.3807,146.1226,540.3807,142.1226,544.3807" style="stroke:#181818;stroke-width:1;"/><line style="stroke:#181818;stroke-width:1;" x1="697.5797" x2="697.5797" y1="923.5332" y2="940.5332"/><line style="stroke:#181818;stroke-width:1;" x1="697.5797" x2="142.1226" y1="940.5332" y2="940.5332"/><line style="stroke:#181818;stroke-width:1;" x1="142.1226" x2="142.1226" y1="940.5332" y2="955.5332"/><polygon fill="#181818" points="138.1226,945.5332,142.1226,955.5332,146.1226,945.5332,142.1226,949.5332" style="stroke:#181818;stroke-width:1;"/><line style="stroke:#181818;stroke-width:1;" x1="142.1226" x2="142.1226" y1="1050.2854" y2="1062.9214"/><line style="stroke:#181818;stroke-width:1;" x1="142.1226" x2="697.5797" y1="1062.9214" y2="1062.9214"/><line style="stroke:#181818;stroke-width:1;" x1="697.5797" x2="697.5797" y1="1062.9214" y2="1100.5573"/><polygon fill="#181818" points="693.5797,1090.5573,697.5797,1100.5573,701.5797,1090.5573,697.5797,1094.5573" style="stroke:#181818;stroke-width:1;"/><text fill="#000000" font-family="sans-serif" font-size="18" lengthAdjust="spacing" textLength="53.9997" x="121.4969" y="34.5638">&#31649;&#29702;&#21592;</text><text fill="#000000" font-family="sans-serif" font-size="18" lengthAdjust="spacing" textLength="35.9998" x="416.2344" y="34.5638">&#23398;&#29983;</text><text fill="#000000" font-family="sans-serif" font-size="18" lengthAdjust="spacing" textLength="71.9996" x="660.58" y="34.5638">&#31995;&#32479;&#21518;&#21488;</text><!--SRC=[XLFDKXf14BxlKqnvWbFkS4XPgRn0AbKvMXIiWIG2jQpcme4rA0k2e0A2eB09eiOIg49qtTNuCjCpmrkaOLQYoI4Szj3zTNy_qwJvmEALRTXhf9MK7j9q9G3bFR2_ySiJCMcnQnSAvyIt7DPZ6we_g2XfkEhpQYUj1DYaBCvCyTWILf7QL_meAsU2kC9iWUj0w_kqqI4-Lip1u6Zs7TwBZ06s-GhhI8dx0jGkqFikb3TnaZwquS0WlWy9xNCAcx5L76uCeT8NkxTmMd_j9tfKZS-BVeNWpnkNRJ4qw5qVnUfwA1nTK-CwxfYZmBg4xQRiy_iwb6-9JrVNaYjXLTDNuead72jNgDE3WSMwTb1HlwHKuaDsZujVvU7N5XjMKIft3zXn1p7nI6mLKtaMOu1rJdbx1w5oaOm1p4DXdNkUklRqPr5CigpUbFwWOegpxC8VjKkouZ5FByRGEY6-T-edDQoh4KzlIaya5ogVmpD7uZ4dsJ6EP59BRCo75ch7BdSxKDc5yYYjVDGIwqb2dHqeM04YiuIM0yMwbzxyDSaRp2gs6Wk7T9M8mGWUQaZRAu5vm-evwjuimfRmvQyXBV87k3KMHfKwZdnsARDgu5sGzsfeZV323SiOSuLahkUlJ65xZ5YP-knId1sy7Rvv1pbt2HxscVL3LfU2_x4dmSpUmjNUixeTWL6rCzmrlJjq75OR1VzjosnUj5atXnubERNHjXQEubybil2OOKE3vJEidPSPIByoboUA_CNCgDcTDdkoJUrhTkZb-YAK07qyvhMcboxi5ydR3JnqugciZLXf45HcX_4R]--></g></svg>