<svg xmlns="http://www.w3.org/2000/svg" xmlns:xlink="http://www.w3.org/1999/xlink" contentStyleType="text/css" data-diagram-type="SEQUENCE" height="1327px" preserveAspectRatio="none" style="width:1188px;height:1327px;background:#FFFFFF;" version="1.1" viewBox="0 0 1188 1327" width="1188px" zoomAndPan="magnify"><title>&#31454;&#36187;&#31649;&#29702;&#31995;&#32479;&#26680;&#24515;&#19994;&#21153;&#27969;&#31243;&#26102;&#24207;&#22270;</title><defs/><g><text fill="#000000" font-family="sans-serif" font-size="14" font-weight="bold" lengthAdjust="spacing" textLength="209.9991" x="485.2088" y="31.2399">&#31454;&#36187;&#31649;&#29702;&#31995;&#32479;&#26680;&#24515;&#19994;&#21153;&#27969;&#31243;&#26102;&#24207;&#22270;</text><g><title>....API</title><rect fill="#FFFFFF" height="30" style="stroke:#181818;stroke-width:1;" width="10" x="333.4891" y="241.0159"/></g><rect fill="none" height="255.4161" style="stroke:#000000;stroke-width:1.5;" width="656.703" x="474.8754" y="621.432"/><rect fill="none" height="189.9441" style="stroke:#000000;stroke-width:1.5;" width="899.3475" x="272.0693" y="1003.3202"/><g><title>......</title><rect fill="#000000" fill-opacity="0.00000" height="1116.5445" width="8" x="41.7438" y="126.5438"/><line style="stroke:#181818;stroke-width:0.5;stroke-dasharray:5,5;" x1="45" x2="45" y1="126.5438" y2="1243.0883"/></g><g><title>....</title><rect fill="#000000" fill-opacity="0.00000" height="1116.5445" width="8" x="123.4875" y="126.5438"/><line style="stroke:#181818;stroke-width:0.5;stroke-dasharray:5,5;" x1="126.4877" x2="126.4877" y1="126.5438" y2="1243.0883"/></g><g><title>....API</title><rect fill="#000000" fill-opacity="0.00000" height="1116.5445" width="8" x="334.4891" y="126.5438"/><line style="stroke:#181818;stroke-width:0.5;stroke-dasharray:5,5;" x1="338.0693" x2="338.0693" y1="126.5438" y2="1243.0883"/></g><g><title>....API</title><rect fill="#000000" fill-opacity="0.00000" height="1116.5445" width="8" x="537.2322" y="126.5438"/><line style="stroke:#181818;stroke-width:0.5;stroke-dasharray:5,5;" x1="540.8754" x2="540.8754" y1="126.5438" y2="1243.0883"/></g><g><title>Team .....</title><rect fill="#000000" fill-opacity="0.00000" height="1116.5445" width="8" x="818.1475" y="126.5438"/><line style="stroke:#181818;stroke-width:0.5;stroke-dasharray:5,5;" x1="821.3537" x2="821.3537" y1="126.5438" y2="1243.0883"/></g><g><title>Award .....</title><rect fill="#000000" fill-opacity="0.00000" height="1116.5445" width="8" x="928.1081" y="126.5438"/><line style="stroke:#181818;stroke-width:0.5;stroke-dasharray:5,5;" x1="931.9413" x2="931.9413" y1="126.5438" y2="1243.0883"/></g><g><title>Certificate .....</title><rect fill="#000000" fill-opacity="0.00000" height="1116.5445" width="8" x="1053.4266" y="126.5438"/><line style="stroke:#181818;stroke-width:0.5;stroke-dasharray:5,5;" x1="1057.2749" x2="1057.2749" y1="126.5438" y2="1243.0883"/></g><g class="participant participant-head" data-participant="Admin"><text fill="#000000" font-family="sans-serif" font-size="14" lengthAdjust="spacing" textLength="75.4877" x="5" y="122.5118">&#31649;&#29702;&#21592;/&#32769;&#24072;</text><ellipse cx="45.7438" cy="54.7719" fill="#E2E2F0" rx="8" ry="8" style="stroke:#181818;stroke-width:0.5;"/><path d="M45.7438,62.7719 L45.7438,89.7719 M32.7438,70.7719 L58.7438,70.7719 M45.7438,89.7719 L32.7438,104.7719 M45.7438,89.7719 L58.7438,104.7719" fill="none" style="stroke:#181818;stroke-width:0.5;"/></g><g class="participant participant-tail" data-participant="Admin"><text fill="#000000" font-family="sans-serif" font-size="14" lengthAdjust="spacing" textLength="75.4877" x="5" y="1258.3283">&#31649;&#29702;&#21592;/&#32769;&#24072;</text><ellipse cx="45.7438" cy="1270.8602" fill="#E2E2F0" rx="8" ry="8" style="stroke:#181818;stroke-width:0.5;"/><path d="M45.7438,1278.8602 L45.7438,1305.8602 M32.7438,1286.8602 L58.7438,1286.8602 M45.7438,1305.8602 L32.7438,1320.8602 M45.7438,1305.8602 L58.7438,1320.8602" fill="none" style="stroke:#181818;stroke-width:0.5;"/></g><g class="participant participant-head" data-participant="Student"><text fill="#000000" font-family="sans-serif" font-size="14" lengthAdjust="spacing" textLength="55.9998" x="96.4877" y="122.5118">&#23398;&#29983;&#38431;&#38271;</text><ellipse cx="127.4875" cy="54.7719" fill="#E2E2F0" rx="8" ry="8" style="stroke:#181818;stroke-width:0.5;"/><path d="M127.4875,62.7719 L127.4875,89.7719 M114.4875,70.7719 L140.4875,70.7719 M127.4875,89.7719 L114.4875,104.7719 M127.4875,89.7719 L140.4875,104.7719" fill="none" style="stroke:#181818;stroke-width:0.5;"/></g><g class="participant participant-tail" data-participant="Student"><text fill="#000000" font-family="sans-serif" font-size="14" lengthAdjust="spacing" textLength="55.9998" x="96.4877" y="1258.3283">&#23398;&#29983;&#38431;&#38271;</text><ellipse cx="127.4875" cy="1270.8602" fill="#E2E2F0" rx="8" ry="8" style="stroke:#181818;stroke-width:0.5;"/><path d="M127.4875,1278.8602 L127.4875,1305.8602 M114.4875,1286.8602 L140.4875,1286.8602 M127.4875,1305.8602 L114.4875,1320.8602 M127.4875,1305.8602 L140.4875,1320.8602" fill="none" style="stroke:#181818;stroke-width:0.5;"/></g><g class="participant participant-head" data-participant="EventAPI"><rect fill="#E2E2F0" height="54.5438" rx="2.5" ry="2.5" style="stroke:#181818;stroke-width:0.5;" width="112.8396" x="282.0693" y="71"/><text fill="#000000" font-family="sans-serif" font-size="14" lengthAdjust="spacing" textLength="77.4757" x="299.7512" y="94.2399">&#31454;&#36187;&#21457;&#24067;API</text><text fill="#000000" font-family="sans-serif" font-size="14" lengthAdjust="spacing" textLength="98.8396" x="289.0693" y="114.5118">(EventViewSet)</text></g><g class="participant participant-tail" data-participant="EventAPI"><rect fill="#E2E2F0" height="54.5438" rx="2.5" ry="2.5" style="stroke:#181818;stroke-width:0.5;" width="112.8396" x="282.0693" y="1242.0883"/><text fill="#000000" font-family="sans-serif" font-size="14" lengthAdjust="spacing" textLength="77.4757" x="299.7512" y="1265.3283">&#31454;&#36187;&#21457;&#24067;API</text><text fill="#000000" font-family="sans-serif" font-size="14" lengthAdjust="spacing" textLength="98.8396" x="289.0693" y="1285.6002">(EventViewSet)</text></g><g class="participant participant-head" data-participant="TeamAPI"><rect fill="#E2E2F0" height="54.5438" rx="2.5" ry="2.5" style="stroke:#181818;stroke-width:0.5;" width="112.7136" x="484.8754" y="71"/><text fill="#000000" font-family="sans-serif" font-size="14" lengthAdjust="spacing" textLength="77.4757" x="502.4944" y="94.2399">&#22242;&#38431;&#31649;&#29702;API</text><text fill="#000000" font-family="sans-serif" font-size="14" lengthAdjust="spacing" textLength="98.7136" x="491.8754" y="114.5118">(TeamViewSet)</text></g><g class="participant participant-tail" data-participant="TeamAPI"><rect fill="#E2E2F0" height="54.5438" rx="2.5" ry="2.5" style="stroke:#181818;stroke-width:0.5;" width="112.7136" x="484.8754" y="1242.0883"/><text fill="#000000" font-family="sans-serif" font-size="14" lengthAdjust="spacing" textLength="77.4757" x="502.4944" y="1265.3283">&#22242;&#38431;&#31649;&#29702;API</text><text fill="#000000" font-family="sans-serif" font-size="14" lengthAdjust="spacing" textLength="98.7136" x="491.8754" y="1285.6002">(TeamViewSet)</text></g><g class="participant participant-head" data-participant="TeamDB"><text fill="#000000" font-family="sans-serif" font-size="14" lengthAdjust="spacing" textLength="91.5876" x="773.3537" y="122.5118">Team (&#20020;&#26102;&#34920;)</text><path d="M804.1475,70.2719 C804.1475,60.2719 822.1475,60.2719 822.1475,60.2719 C822.1475,60.2719 840.1475,60.2719 840.1475,70.2719 L840.1475,96.2719 C840.1475,106.2719 822.1475,106.2719 822.1475,106.2719 C822.1475,106.2719 804.1475,106.2719 804.1475,96.2719 L804.1475,70.2719" fill="#E2E2F0" style="stroke:#181818;stroke-width:0.5;"/><path d="M804.1475,70.2719 C804.1475,80.2719 822.1475,80.2719 822.1475,80.2719 C822.1475,80.2719 840.1475,80.2719 840.1475,70.2719" fill="none" style="stroke:#181818;stroke-width:0.5;"/></g><g class="participant participant-tail" data-participant="TeamDB"><text fill="#000000" font-family="sans-serif" font-size="14" lengthAdjust="spacing" textLength="91.5876" x="773.3537" y="1258.3283">Team (&#20020;&#26102;&#34920;)</text><path d="M804.1475,1272.3602 C804.1475,1262.3602 822.1475,1262.3602 822.1475,1262.3602 C822.1475,1262.3602 840.1475,1262.3602 840.1475,1272.3602 L840.1475,1298.3602 C840.1475,1308.3602 822.1475,1308.3602 822.1475,1308.3602 C822.1475,1308.3602 804.1475,1308.3602 804.1475,1298.3602 L804.1475,1272.3602" fill="#E2E2F0" style="stroke:#181818;stroke-width:0.5;"/><path d="M804.1475,1272.3602 C804.1475,1282.3602 822.1475,1282.3602 822.1475,1282.3602 C822.1475,1282.3602 840.1475,1282.3602 840.1475,1272.3602" fill="none" style="stroke:#181818;stroke-width:0.5;"/></g><g class="participant participant-head" data-participant="AwardDB"><text fill="#000000" font-family="sans-serif" font-size="14" lengthAdjust="spacing" textLength="96.3336" x="880.9413" y="122.5118">Award (&#24402;&#26723;&#34920;)</text><path d="M914.1081,70.2719 C914.1081,60.2719 932.1081,60.2719 932.1081,60.2719 C932.1081,60.2719 950.1081,60.2719 950.1081,70.2719 L950.1081,96.2719 C950.1081,106.2719 932.1081,106.2719 932.1081,106.2719 C932.1081,106.2719 914.1081,106.2719 914.1081,96.2719 L914.1081,70.2719" fill="#E2E2F0" style="stroke:#181818;stroke-width:0.5;"/><path d="M914.1081,70.2719 C914.1081,80.2719 932.1081,80.2719 932.1081,80.2719 C932.1081,80.2719 950.1081,80.2719 950.1081,70.2719" fill="none" style="stroke:#181818;stroke-width:0.5;"/></g><g class="participant participant-tail" data-participant="AwardDB"><text fill="#000000" font-family="sans-serif" font-size="14" lengthAdjust="spacing" textLength="96.3336" x="880.9413" y="1258.3283">Award (&#24402;&#26723;&#34920;)</text><path d="M914.1081,1272.3602 C914.1081,1262.3602 932.1081,1262.3602 932.1081,1262.3602 C932.1081,1262.3602 950.1081,1262.3602 950.1081,1272.3602 L950.1081,1298.3602 C950.1081,1308.3602 932.1081,1308.3602 932.1081,1308.3602 C932.1081,1308.3602 914.1081,1308.3602 914.1081,1298.3602 L914.1081,1272.3602" fill="#E2E2F0" style="stroke:#181818;stroke-width:0.5;"/><path d="M914.1081,1272.3602 C914.1081,1282.3602 932.1081,1282.3602 932.1081,1282.3602 C932.1081,1282.3602 950.1081,1282.3602 950.1081,1272.3602" fill="none" style="stroke:#181818;stroke-width:0.5;"/></g><g class="participant participant-head" data-participant="CertDB"><text fill="#000000" font-family="sans-serif" font-size="14" lengthAdjust="spacing" textLength="122.3035" x="993.2749" y="122.5118">Certificate (&#35777;&#20070;&#34920;)</text><path d="M1039.4266,70.2719 C1039.4266,60.2719 1057.4266,60.2719 1057.4266,60.2719 C1057.4266,60.2719 1075.4266,60.2719 1075.4266,70.2719 L1075.4266,96.2719 C1075.4266,106.2719 1057.4266,106.2719 1057.4266,106.2719 C1057.4266,106.2719 1039.4266,106.2719 1039.4266,96.2719 L1039.4266,70.2719" fill="#E2E2F0" style="stroke:#181818;stroke-width:0.5;"/><path d="M1039.4266,70.2719 C1039.4266,80.2719 1057.4266,80.2719 1057.4266,80.2719 C1057.4266,80.2719 1075.4266,80.2719 1075.4266,70.2719" fill="none" style="stroke:#181818;stroke-width:0.5;"/></g><g class="participant participant-tail" data-participant="CertDB"><text fill="#000000" font-family="sans-serif" font-size="14" lengthAdjust="spacing" textLength="122.3035" x="993.2749" y="1258.3283">Certificate (&#35777;&#20070;&#34920;)</text><path d="M1039.4266,1272.3602 C1039.4266,1262.3602 1057.4266,1262.3602 1057.4266,1262.3602 C1057.4266,1262.3602 1075.4266,1262.3602 1075.4266,1272.3602 L1075.4266,1298.3602 C1075.4266,1308.3602 1057.4266,1308.3602 1057.4266,1308.3602 C1057.4266,1308.3602 1039.4266,1308.3602 1039.4266,1298.3602 L1039.4266,1272.3602" fill="#E2E2F0" style="stroke:#181818;stroke-width:0.5;"/><path d="M1039.4266,1272.3602 C1039.4266,1282.3602 1057.4266,1282.3602 1057.4266,1282.3602 C1057.4266,1282.3602 1075.4266,1282.3602 1075.4266,1272.3602" fill="none" style="stroke:#181818;stroke-width:0.5;"/></g><g><title>....API</title><rect fill="#FFFFFF" height="30" style="stroke:#181818;stroke-width:1;" width="10" x="333.4891" y="241.0159"/></g><rect fill="#EEEEEE" height="3" style="stroke:#EEEEEE;stroke-width:1;" width="1181.4168" x="0" y="158.9558"/><line style="stroke:#000000;stroke-width:1;" x1="0" x2="1181.4168" y1="158.9558" y2="158.9558"/><line style="stroke:#000000;stroke-width:1;" x1="0" x2="1181.4168" y1="161.9558" y2="161.9558"/><rect fill="#EEEEEE" height="26.824" style="stroke:#000000;stroke-width:2;" width="120.9511" x="530.2328" y="146.5438"/><text fill="#000000" font-family="sans-serif" font-size="13" font-weight="bold" lengthAdjust="spacing" textLength="104.0001" x="536.2328" y="165.6238">&#38454;&#27573;&#19968;&#65306;&#36187;&#20107;&#21457;&#24067;</text><g class="message" data-participant-1="Admin" data-participant-2="EventAPI"><polygon fill="#181818" points="326.4891,204.1919,336.4891,208.1919,326.4891,212.1919,330.4891,208.1919" style="stroke:#181818;stroke-width:1;"/><line style="stroke:#181818;stroke-width:1;" x1="45.7438" x2="332.4891" y1="208.1919" y2="208.1919"/><text fill="#000000" font-family="sans-serif" font-size="13" font-weight="bold" lengthAdjust="spacing" textLength="7.67" x="52.7438" y="202.4479">1</text><text fill="#000000" font-family="sans-serif" font-size="13" lengthAdjust="spacing" textLength="174.3562" x="64.4138" y="202.4479">POST /api/events/ (&#21019;&#24314;&#36187;&#20107;)</text></g><g class="message" data-participant-1="EventAPI" data-participant-2="TeamDB"><polygon fill="#181818" points="810.1475,237.0159,820.1475,241.0159,810.1475,245.0159,814.1475,241.0159" style="stroke:#181818;stroke-width:1;"/><line style="stroke:#181818;stroke-width:1;" x1="343.4891" x2="816.1475" y1="241.0159" y2="241.0159"/><text fill="#000000" font-family="sans-serif" font-size="13" font-weight="bold" lengthAdjust="spacing" textLength="7.67" x="350.4891" y="235.2719">2</text><text fill="#000000" font-family="sans-serif" font-size="13" lengthAdjust="spacing" textLength="139.6851" x="362.1591" y="235.2719">&#21021;&#22987;&#21270;&#36187;&#20107;&#29366;&#24577; (Active)</text></g><rect fill="#EEEEEE" height="3" style="stroke:#EEEEEE;stroke-width:1;" width="1181.4168" x="0" y="301.4279"/><line style="stroke:#000000;stroke-width:1;" x1="0" x2="1181.4168" y1="301.4279" y2="301.4279"/><line style="stroke:#000000;stroke-width:1;" x1="0" x2="1181.4168" y1="304.4279" y2="304.4279"/><rect fill="#EEEEEE" height="26.824" style="stroke:#000000;stroke-width:2;" width="133.9511" x="523.7328" y="289.0159"/><text fill="#000000" font-family="sans-serif" font-size="13" font-weight="bold" lengthAdjust="spacing" textLength="117.0001" x="529.7328" y="308.0959">&#38454;&#27573;&#20108;&#65306;&#32452;&#38431;&#19982;&#21442;&#36187;</text><g class="message" data-participant-1="Student" data-participant-2="TeamAPI"><polygon fill="#181818" points="529.2322,346.6639,539.2322,350.6639,529.2322,354.6639,533.2322,350.6639" style="stroke:#181818;stroke-width:1;"/><line style="stroke:#181818;stroke-width:1;" x1="127.4875" x2="535.2322" y1="350.6639" y2="350.6639"/><text fill="#000000" font-family="sans-serif" font-size="13" font-weight="bold" lengthAdjust="spacing" textLength="7.67" x="134.4875" y="344.9199">3</text><text fill="#000000" font-family="sans-serif" font-size="13" lengthAdjust="spacing" textLength="210.8082" x="146.1576" y="344.9199">POST /api/teams/ (&#36873;&#25321;&#36187;&#20107;&#24182;&#32452;&#38431;)</text></g><g class="message" data-participant-1="TeamAPI" data-participant-2="TeamDB"><polygon fill="#181818" points="810.1475,379.4879,820.1475,383.4879,810.1475,387.4879,814.1475,383.4879" style="stroke:#181818;stroke-width:1;"/><line style="stroke:#181818;stroke-width:1;" x1="541.2322" x2="816.1475" y1="383.4879" y2="383.4879"/><text fill="#000000" font-family="sans-serif" font-size="13" font-weight="bold" lengthAdjust="spacing" textLength="7.67" x="548.2322" y="377.7439">4</text><text fill="#000000" font-family="sans-serif" font-size="13" lengthAdjust="spacing" textLength="164.7231" x="559.9023" y="377.7439">Create Team (Status: Draft)</text></g><g class="message" data-participant-1="Student" data-participant-2="TeamAPI"><polygon fill="#181818" points="529.2322,412.3119,539.2322,416.3119,529.2322,420.3119,533.2322,416.3119" style="stroke:#181818;stroke-width:1;"/><line style="stroke:#181818;stroke-width:1;" x1="127.4875" x2="535.2322" y1="416.3119" y2="416.3119"/><text fill="#000000" font-family="sans-serif" font-size="13" font-weight="bold" lengthAdjust="spacing" textLength="7.67" x="134.4875" y="410.5679">5</text><text fill="#000000" font-family="sans-serif" font-size="13" lengthAdjust="spacing" textLength="190.6712" x="146.1576" y="410.5679">PATCH /upload-files/ (&#19978;&#20256;&#20316;&#21697;)</text></g><g class="message" data-participant-1="TeamAPI" data-participant-2="TeamDB"><polygon fill="#181818" points="810.1475,445.136,820.1475,449.136,810.1475,453.136,814.1475,449.136" style="stroke:#181818;stroke-width:1;"/><line style="stroke:#181818;stroke-width:1;" x1="541.2322" x2="816.1475" y1="449.136" y2="449.136"/><text fill="#000000" font-family="sans-serif" font-size="13" font-weight="bold" lengthAdjust="spacing" textLength="7.67" x="548.2322" y="443.392">6</text><text fill="#000000" font-family="sans-serif" font-size="13" lengthAdjust="spacing" textLength="212.6932" x="559.9023" y="443.392">Update Works, Status -&gt; Submitted</text></g><rect fill="#EEEEEE" height="3" style="stroke:#EEEEEE;stroke-width:1;" width="1181.4168" x="0" y="479.548"/><line style="stroke:#000000;stroke-width:1;" x1="0" x2="1181.4168" y1="479.548" y2="479.548"/><line style="stroke:#000000;stroke-width:1;" x1="0" x2="1181.4168" y1="482.548" y2="482.548"/><rect fill="#EEEEEE" height="26.824" style="stroke:#000000;stroke-width:2;" width="198.7302" x="491.3433" y="467.136"/><text fill="#000000" font-family="sans-serif" font-size="13" font-weight="bold" lengthAdjust="spacing" textLength="181.7792" x="497.3433" y="486.216">&#38454;&#27573;&#19977;&#65306;&#33719;&#22870;&#30003;&#25253;&#19982;&#23457;&#26680; (&#26680;&#24515;)</text><g class="message" data-participant-1="Student" data-participant-2="TeamAPI"><polygon fill="#181818" points="529.2322,527.784,539.2322,531.784,529.2322,535.784,533.2322,531.784" style="stroke:#181818;stroke-width:1;"/><line style="stroke:#181818;stroke-width:1;" x1="127.4875" x2="535.2322" y1="531.784" y2="531.784"/><text fill="#000000" font-family="sans-serif" font-size="13" font-weight="bold" lengthAdjust="spacing" textLength="7.67" x="134.4875" y="526.04">7</text><text fill="#000000" font-family="sans-serif" font-size="13" lengthAdjust="spacing" textLength="231.3352" x="146.1576" y="526.04">PATCH /upload-files/ (&#19978;&#20256;&#35777;&#20070; &amp; &#32534;&#21495;)</text></g><path d="M546,508.96 L546,536.96 L894,536.96 L894,518.96 L884,508.96 L546,508.96" fill="#FEFFDD" style="stroke:#181818;stroke-width:0.5;"/><path d="M884,508.96 L884,518.96 L894,518.96 L884,508.96" fill="#FEFFDD" style="stroke:#181818;stroke-width:0.5;"/><text fill="#000000" font-family="sans-serif" font-size="13" lengthAdjust="spacing" textLength="327.5483" x="552" y="529.04">Payload: {attachment: file, temp_cert_no: "2024-001"}</text><g class="message" data-participant-1="TeamAPI" data-participant-2="TeamDB"><polygon fill="#181818" points="810.1475,563.608,820.1475,567.608,810.1475,571.608,814.1475,567.608" style="stroke:#181818;stroke-width:1;"/><line style="stroke:#181818;stroke-width:1;" x1="541.2322" x2="816.1475" y1="567.608" y2="567.608"/><text fill="#000000" font-family="sans-serif" font-size="13" font-weight="bold" lengthAdjust="spacing" textLength="7.67" x="548.2322" y="561.864">8</text><text fill="#000000" font-family="sans-serif" font-size="13" lengthAdjust="spacing" textLength="219.8432" x="559.9023" y="561.864">Update attachment &amp; temp_cert_no</text></g><g class="message" data-participant-1="Admin" data-participant-2="TeamAPI"><polygon fill="#181818" points="529.2322,599.432,539.2322,603.432,529.2322,607.432,533.2322,603.432" style="stroke:#181818;stroke-width:1;"/><line style="stroke:#181818;stroke-width:1;" x1="45.7438" x2="535.2322" y1="603.432" y2="603.432"/><text fill="#000000" font-family="sans-serif" font-size="13" font-weight="bold" lengthAdjust="spacing" textLength="7.67" x="52.7438" y="597.688">9</text><text fill="#000000" font-family="sans-serif" font-size="13" lengthAdjust="spacing" textLength="205.5952" x="64.4138" y="597.688">PATCH /api/teams/{id}/ (&#23457;&#26680;&#36890;&#36807;)</text></g><path d="M546,580.608 L546,608.608 L746,608.608 L746,590.608 L736,580.608 L546,580.608" fill="#FEFFDD" style="stroke:#181818;stroke-width:0.5;"/><path d="M736,580.608 L736,590.608 L746,590.608 L736,580.608" fill="#FEFFDD" style="stroke:#181818;stroke-width:0.5;"/><text fill="#000000" font-family="sans-serif" font-size="13" lengthAdjust="spacing" textLength="179.0101" x="552" y="600.688">Payload: {status: "approved"}</text><path d="M474.8754,621.432 L709.5586,621.432 L709.5586,632.256 L699.5586,642.256 L474.8754,642.256 L474.8754,621.432" fill="#EEEEEE" style="stroke:#000000;stroke-width:1.5;"/><rect fill="none" height="255.4161" style="stroke:#000000;stroke-width:1.5;" width="656.703" x="474.8754" y="621.432"/><text fill="#000000" font-family="sans-serif" font-size="13" font-weight="bold" lengthAdjust="spacing" textLength="189.6832" x="489.8754" y="637.512">&#20107;&#21153;&#22788;&#29702; (Transaction Atomic)</text><g class="message" data-participant-1="TeamAPI" data-participant-2="TeamDB"><polygon fill="#181818" points="810.1475,663.0801,820.1475,667.0801,810.1475,671.0801,814.1475,667.0801" style="stroke:#181818;stroke-width:1;"/><line style="stroke:#181818;stroke-width:1;" x1="541.2322" x2="816.1475" y1="667.0801" y2="667.0801"/><text fill="#000000" font-family="sans-serif" font-size="13" font-weight="bold" lengthAdjust="spacing" textLength="15.34" x="548.2322" y="661.3361">10</text><text fill="#000000" font-family="sans-serif" font-size="13" lengthAdjust="spacing" textLength="213.4602" x="567.5723" y="661.3361">&#26657;&#39564;&#26159;&#21542;&#21253;&#21547; cert_no &amp; attachment</text></g><g class="message" data-participant-1="TeamAPI" data-participant-2="CertDB"><polygon fill="#181818" points="1045.4266,714.7281,1055.4266,718.7281,1045.4266,722.7281,1049.4266,718.7281" style="stroke:#181818;stroke-width:1;"/><line style="stroke:#181818;stroke-width:1;" x1="541.2322" x2="1051.4266" y1="718.7281" y2="718.7281"/><text fill="#000000" font-family="sans-serif" font-size="13" font-weight="bold" lengthAdjust="spacing" textLength="15.34" x="548.2322" y="703.5721">11</text><text fill="#000000" font-family="sans-serif" font-size="13" lengthAdjust="spacing" textLength="105.5211" x="567.5723" y="694.1601">1. &#21019;&#24314; Certificate</text><text fill="#000000" font-family="sans-serif" font-size="13" lengthAdjust="spacing" textLength="112.7881" x="567.5723" y="712.9841">(&#27969;&#24335;&#25335;&#36125;&#29289;&#29702;&#25991;&#20214;)</text></g><g class="message" data-participant-1="TeamAPI" data-participant-2="AwardDB"><polygon fill="#181818" points="920.1081,766.3761,930.1081,770.3761,920.1081,774.3761,924.1081,770.3761" style="stroke:#181818;stroke-width:1;"/><line style="stroke:#181818;stroke-width:1;" x1="541.2322" x2="926.1081" y1="770.3761" y2="770.3761"/><text fill="#000000" font-family="sans-serif" font-size="13" font-weight="bold" lengthAdjust="spacing" textLength="15.34" x="548.2322" y="755.2201">12</text><text fill="#000000" font-family="sans-serif" font-size="13" lengthAdjust="spacing" textLength="110.3181" x="567.5723" y="745.8081">2. &#21019;&#24314; Award &#35760;&#24405;</text><text fill="#000000" font-family="sans-serif" font-size="13" lengthAdjust="spacing" textLength="186.8882" x="567.5723" y="764.6321">(&#20851;&#32852; Competition, Event, Cert)</text></g><g class="message" data-participant-1="TeamAPI" data-participant-2="AwardDB"><polygon fill="#181818" points="920.1081,799.2001,930.1081,803.2001,920.1081,807.2001,924.1081,803.2001" style="stroke:#181818;stroke-width:1;"/><line style="stroke:#181818;stroke-width:1;" x1="541.2322" x2="926.1081" y1="803.2001" y2="803.2001"/><text fill="#000000" font-family="sans-serif" font-size="13" font-weight="bold" lengthAdjust="spacing" textLength="15.34" x="548.2322" y="797.4561">13</text><text fill="#000000" font-family="sans-serif" font-size="13" lengthAdjust="spacing" textLength="187.7592" x="567.5723" y="797.4561">3. &#20851;&#32852;&#20154;&#21592; (Student, Teachers)</text></g><g class="message" data-participant-1="TeamAPI" data-participant-2="TeamDB"><polygon fill="#181818" points="810.1475,832.0242,820.1475,836.0242,810.1475,840.0242,814.1475,836.0242" style="stroke:#181818;stroke-width:1;"/><line style="stroke:#181818;stroke-width:1;" x1="541.2322" x2="816.1475" y1="836.0242" y2="836.0242"/><text fill="#000000" font-family="sans-serif" font-size="13" font-weight="bold" lengthAdjust="spacing" textLength="15.34" x="548.2322" y="830.2802">14</text><text fill="#000000" font-family="sans-serif" font-size="13" lengthAdjust="spacing" textLength="237.5752" x="567.5723" y="830.2802">4. Team.converted_award = NewAward</text></g><g class="message" data-participant-1="TeamAPI" data-participant-2="TeamDB"><polygon fill="#181818" points="810.1475,864.8482,820.1475,868.8482,810.1475,872.8482,814.1475,868.8482" style="stroke:#181818;stroke-width:1;"/><line style="stroke:#181818;stroke-width:1;" x1="541.2322" x2="816.1475" y1="868.8482" y2="868.8482"/><text fill="#000000" font-family="sans-serif" font-size="13" font-weight="bold" lengthAdjust="spacing" textLength="15.34" x="548.2322" y="863.1042">15</text><text fill="#000000" font-family="sans-serif" font-size="13" lengthAdjust="spacing" textLength="162.5651" x="567.5723" y="863.1042">5. Team.Status = Approved</text></g><g class="message" data-participant-1="TeamAPI" data-participant-2="Admin"><polygon fill="#181818" points="56.7438,904.6722,46.7438,908.6722,56.7438,912.6722,52.7438,908.6722" style="stroke:#181818;stroke-width:1;"/><line style="stroke:#181818;stroke-width:1;stroke-dasharray:2,2;" x1="50.7438" x2="540.2322" y1="908.6722" y2="908.6722"/><text fill="#000000" font-family="sans-serif" font-size="13" font-weight="bold" lengthAdjust="spacing" textLength="15.34" x="62.7438" y="902.9282">16</text><text fill="#000000" font-family="sans-serif" font-size="13" lengthAdjust="spacing" textLength="193.4532" x="82.0839" y="902.9282">&#36820;&#22238;&#23457;&#26680;&#25104;&#21151; (&#29983;&#25104;&#20102;Award&#35760;&#24405;)</text></g><rect fill="#EEEEEE" height="3" style="stroke:#EEEEEE;stroke-width:1;" width="1181.4168" x="0" y="939.0842"/><line style="stroke:#000000;stroke-width:1;" x1="0" x2="1181.4168" y1="939.0842" y2="939.0842"/><line style="stroke:#000000;stroke-width:1;" x1="0" x2="1181.4168" y1="942.0842" y2="942.0842"/><rect fill="#EEEEEE" height="26.824" style="stroke:#000000;stroke-width:2;" width="159.9512" x="510.7328" y="926.6722"/><text fill="#000000" font-family="sans-serif" font-size="13" font-weight="bold" lengthAdjust="spacing" textLength="143.0002" x="516.7328" y="945.7522">&#38454;&#27573;&#22235;&#65306;&#36187;&#20107;&#32467;&#26463;&#19982;&#24402;&#26723;</text><g class="message" data-participant-1="Admin" data-participant-2="EventAPI"><polygon fill="#181818" points="326.4891,984.3202,336.4891,988.3202,326.4891,992.3202,330.4891,988.3202" style="stroke:#181818;stroke-width:1;"/><line style="stroke:#181818;stroke-width:1;" x1="45.7438" x2="332.4891" y1="988.3202" y2="988.3202"/><text fill="#000000" font-family="sans-serif" font-size="13" font-weight="bold" lengthAdjust="spacing" textLength="15.34" x="52.7438" y="982.5762">17</text><text fill="#000000" font-family="sans-serif" font-size="13" lengthAdjust="spacing" textLength="249.4052" x="72.0839" y="982.5762">POST /api/events/{id}/archive/ (&#19968;&#38190;&#24402;&#26723;)</text></g><path d="M272.0693,1003.3202 L506.7525,1003.3202 L506.7525,1014.1442 L496.7525,1024.1442 L272.0693,1024.1442 L272.0693,1003.3202" fill="#EEEEEE" style="stroke:#000000;stroke-width:1.5;"/><rect fill="none" height="189.9441" style="stroke:#000000;stroke-width:1.5;" width="899.3475" x="272.0693" y="1003.3202"/><text fill="#000000" font-family="sans-serif" font-size="13" font-weight="bold" lengthAdjust="spacing" textLength="189.6832" x="287.0693" y="1019.4002">&#20107;&#21153;&#22788;&#29702; (Transaction Atomic)</text><g class="message" data-participant-1="EventAPI" data-participant-2="TeamDB"><polygon fill="#181818" points="810.1475,1044.9683,820.1475,1048.9683,810.1475,1052.9683,814.1475,1048.9683" style="stroke:#181818;stroke-width:1;"/><line style="stroke:#181818;stroke-width:1;" x1="338.4891" x2="816.1475" y1="1048.9683" y2="1048.9683"/><text fill="#000000" font-family="sans-serif" font-size="13" font-weight="bold" lengthAdjust="spacing" textLength="15.34" x="345.4891" y="1043.2243">18</text><text fill="#000000" font-family="sans-serif" font-size="13" lengthAdjust="spacing" textLength="267.3062" x="364.8291" y="1043.2243">1. Count(Teams) -&gt; final_participants_count</text></g><g class="message" data-participant-1="EventAPI" data-participant-2="AwardDB"><polygon fill="#181818" points="920.1081,1077.7923,930.1081,1081.7923,920.1081,1085.7923,924.1081,1081.7923" style="stroke:#181818;stroke-width:1;"/><line style="stroke:#181818;stroke-width:1;" x1="338.4891" x2="926.1081" y1="1081.7923" y2="1081.7923"/><text fill="#000000" font-family="sans-serif" font-size="13" font-weight="bold" lengthAdjust="spacing" textLength="15.34" x="345.4891" y="1076.0483">19</text><text fill="#000000" font-family="sans-serif" font-size="13" lengthAdjust="spacing" textLength="246.5062" x="364.8291" y="1076.0483">2. Count(Awards) -&gt; final_winners_count</text></g><g class="message" data-participant-1="EventAPI" data-participant-2="EventAPI"><line style="stroke:#181818;stroke-width:1;" x1="338.4891" x2="380.4891" y1="1114.6163" y2="1114.6163"/><line style="stroke:#181818;stroke-width:1;" x1="380.4891" x2="380.4891" y1="1114.6163" y2="1127.6163"/><line style="stroke:#181818;stroke-width:1;" x1="339.4891" x2="380.4891" y1="1127.6163" y2="1127.6163"/><polygon fill="#181818" points="349.4891,1123.6163,339.4891,1127.6163,349.4891,1131.6163,345.4891,1127.6163" style="stroke:#181818;stroke-width:1;"/><text fill="#000000" font-family="sans-serif" font-size="13" font-weight="bold" lengthAdjust="spacing" textLength="15.34" x="345.4891" y="1108.8723">20</text><text fill="#000000" font-family="sans-serif" font-size="13" lengthAdjust="spacing" textLength="169.4031" x="364.8291" y="1108.8723">3. Status = Archived (&#24050;&#24402;&#26723;)</text></g><g class="message" data-participant-1="EventAPI" data-participant-2="TeamDB"><polygon fill="#181818" points="810.1475,1168.8523,820.1475,1172.8523,810.1475,1176.8523,814.1475,1172.8523" style="stroke:#181818;stroke-width:1;"/><line style="stroke:#181818;stroke-width:1;" x1="338.4891" x2="816.1475" y1="1172.8523" y2="1172.8523"/><text fill="#000000" font-family="sans-serif" font-size="13" font-weight="bold" lengthAdjust="spacing" textLength="15.34" x="345.4891" y="1167.1083">21</text><text fill="#000000" font-family="sans-serif" font-size="13" lengthAdjust="spacing" textLength="204.1262" x="364.8291" y="1167.1083">4. Delete All Teams (&#28165;&#29702;&#20887;&#20313;&#25968;&#25454;)</text></g><path d="M827,1140.6163 L827,1187.6163 L1156,1187.6163 L1156,1150.6163 L1146,1140.6163 L827,1140.6163" fill="#FEFFDD" style="stroke:#181818;stroke-width:0.5;"/><path d="M1146,1140.6163 L1146,1150.6163 L1156,1150.6163 L1146,1140.6163" fill="#FEFFDD" style="stroke:#181818;stroke-width:0.5;"/><text fill="#000000" font-family="sans-serif" font-size="13" lengthAdjust="spacing" textLength="205.1532" x="833" y="1160.6963">&#35302;&#21457; django-cleanup &#21024;&#38500;&#20020;&#26102;&#25991;&#20214;</text><text fill="#000000" font-family="sans-serif" font-size="13" lengthAdjust="spacing" textLength="308.2693" x="833" y="1179.5203">&#20294; Award &#21644; Certificate &#30340;&#25991;&#20214;&#24050;&#29420;&#31435;&#20445;&#23384;&#65292;&#19981;&#21463;&#24433;&#21709;</text><g class="message" data-participant-1="EventAPI" data-participant-2="Admin"><polygon fill="#181818" points="56.7438,1221.0883,46.7438,1225.0883,56.7438,1229.0883,52.7438,1225.0883" style="stroke:#181818;stroke-width:1;"/><line style="stroke:#181818;stroke-width:1;stroke-dasharray:2,2;" x1="50.7438" x2="337.4891" y1="1225.0883" y2="1225.0883"/><text fill="#000000" font-family="sans-serif" font-size="13" font-weight="bold" lengthAdjust="spacing" textLength="15.34" x="62.7438" y="1219.3443">22</text><text fill="#000000" font-family="sans-serif" font-size="13" lengthAdjust="spacing" textLength="156.0002" x="82.0839" y="1219.3443">&#24402;&#26723;&#23436;&#25104;&#65292;&#20020;&#26102;&#25968;&#25454;&#24050;&#38144;&#27585;</text></g><!--SRC=[bLNVJnj747w_lsBbXyedyIiqVR7aIYvKQb_QID3s9H9QxXQurhwpxjQWAefaDq30DZ49vaTm2RXDI58QavO0ZetBFtDxPp_bN-Zihh4FC55xJwVPcM- -sVbc5gUePQOIayHMg47Z1Fa7pvh79RzIzbSN_QEwNz_rzghi_85RtMRPidUSyL_blCqJLYkmqZ-AWZLgsIWa_TdZhS5cEiEgIo647HJJ4uPvuS7UxFl5tTRMRclzN9oEqPHEJAeaiKqDpKXYamAEoCuAZrdrGUpErtVDy9UpuFIzGUR625L5eB30uUL8LleDm2KF6JbESE9I83VmE1rJF8aTWaBSWi9kzHrKr2o_whgDVX7mYirXMqTXrdZYbN_lk0dh9RyH0doc30rJWiBDmupxVh_ZpS_0MOb6KMlhnAiSkzNqXxDjADQjvMIzA1fLn9MX_iyxHKRGdM_7nj4WJXg3XDkSGM2oL6BrcenLbGjN7YQvHn1Rsc4lSoo_8Ptyx8cNpg1mJAF6B55vJunPJhDpbpgvRWkGhUM1h5-VXojsguzOuHV0vNpRJRn8VOKm1HFdsqelUxdNxLhVdqWSLMb717cFs8HJa7qPevYcd0WQjV4KLPNUoMBZ8r-XmLGoRc6zVyg84vxGhMRTipstyIjRo_JCyrrIvtb-iEoVd3ua4_7piTHamg2Kw9SwjSmxzUYKlTZmYqTUzWM_WaePvWA5vN2eDzx5H-X9XQ1Fa7-smGgdgc9QGCasfcSe1EAVUKW4tSEKOcqc0SWHn07w42M9v8G6WfemhGWA3GyDt-uV6heLkl-HIhiea308e7GrTvLrjuNt3Fq-rvqekfNURfu_l8ckqsvQ22UJjZLBTA2bJDjMAebuzxDbzdmUHXI5nsriEbnqbebYr4eOcgeW-7hKuEsLMt_alQr3jhhFyWjizG2rsKCntSf4-5KCENWHT6i0oR51WJ65BG4RZPqLlDnfyzsEl_mQg7aR3ztwoJKoxNcFeE4EabmCpSfRrbW7ABPmrCmKqOYLI19Ofb1OdnocFf7pPiHF0L74khKQx52kV26bFkwjpH3RKNlMTd4_jmV4xu1ccREGYEWJM32Bec_8dCXoK-HdxSZs14HHhDqrXPWm0vq8pfRB98AQvqLMUYQLu2sjikmk2iDYXr-tjYXooVjG0nF4IgNEhlFhQzwEM29YdVxNfISKY6rj1lQNcA1qgrYH4Eh_qrUlTGdY6B5I9XLlXgFoeod3nF69m1FZJ6ZSvHf6K1SIH5Y2A7E6QK8JRm3eLWqww3P2rihVdTE_BmhjYA1N4Q22KH8dC9InU5nO7TXFrGN-C2zkkesdtlfRRwKYKOB3stov3oyGqd_4vhJLhyK9Dk4ssT9Uw-bp-JRAaRXhket5jkZPatnma92_FI-TWAsV-zC_oBddE-pDreUpl5jTOOLDrlYBhQr8MNNPTtKbIsILF2X918cyWZ50jeffxp3pBm00]--></g></svg>