<svg xmlns="http://www.w3.org/2000/svg" xmlns:xlink="http://www.w3.org/1999/xlink" contentStyleType="text/css" data-diagram-type="STATE" height="875px" preserveAspectRatio="none" style="width:992px;height:875px;background:#FFFFFF;" version="1.1" viewBox="0 0 992 875" width="992px" zoomAndPan="magnify"><title>&#31454;&#36187;&#22242;&#38431;&#20840;&#29983;&#21629;&#21608;&#26399;&#29366;&#24577;&#26426;</title><defs/><g><g class="title" data-source-line="1"><text fill="#000000" font-family="sans-serif" font-size="14" font-weight="bold" lengthAdjust="spacing" textLength="167.9993" x="405.0004" y="26.2399">&#31454;&#36187;&#22242;&#38431;&#20840;&#29983;&#21629;&#21608;&#26399;&#29366;&#24577;&#26426;</text></g><g id="Draft"><rect fill="#F1F1F1" height="50" rx="12.5" ry="12.5" style="stroke:#181818;stroke-width:0.5;" width="93.3737" x="767.5" y="197.2719"/><line style="stroke:#181818;stroke-width:0.5;" x1="767.5" x2="860.8737" y1="227.5438" y2="227.5438"/><text fill="#000000" font-family="sans-serif" font-size="14" lengthAdjust="spacing" textLength="73.3737" x="777.5" y="218.5118">&#33609;&#31295; (Draft)</text></g><g id="Submitted"><rect fill="#F1F1F1" height="50" rx="12.5" ry="12.5" style="stroke:#181818;stroke-width:0.5;" width="143.8995" x="611" y="346.2719"/><line style="stroke:#181818;stroke-width:0.5;" x1="611" x2="754.8995" y1="376.5438" y2="376.5438"/><text fill="#000000" font-family="sans-serif" font-size="14" lengthAdjust="spacing" textLength="123.8995" x="621" y="367.5118">&#24453;&#23457;&#26680; (Submitted)</text></g><g id="Approved"><rect fill="#F1F1F1" height="50" rx="12.5" ry="12.5" style="stroke:#181818;stroke-width:0.5;" width="199.6052" x="7" y="522.2719"/><line style="stroke:#181818;stroke-width:0.5;" x1="7" x2="206.6052" y1="552.5438" y2="552.5438"/><text fill="#000000" font-family="sans-serif" font-size="14" lengthAdjust="spacing" textLength="179.6052" x="17" y="543.5118">&#24050;&#33719;&#22870;/&#23457;&#26680;&#36890;&#36807; (Approved)</text></g><g id="Rejected"><rect fill="#F1F1F1" height="50" rx="12.5" ry="12.5" style="stroke:#181818;stroke-width:0.5;" width="131.7055" x="636" y="522.2719"/><line style="stroke:#181818;stroke-width:0.5;" x1="636" x2="767.7055" y1="552.5438" y2="552.5438"/><text fill="#000000" font-family="sans-serif" font-size="14" lengthAdjust="spacing" textLength="111.7055" x="646" y="543.5118">&#24050;&#39539;&#22238; (Rejected)</text></g><g id="EndState"><rect fill="#F1F1F1" height="50" rx="12.5" ry="12.5" style="stroke:#181818;stroke-width:0.5;" width="141.4635" x="728.5" y="698.2719"/><line style="stroke:#181818;stroke-width:0.5;" x1="728.5" x2="869.9635" y1="728.5438" y2="728.5438"/><text fill="#000000" font-family="sans-serif" font-size="14" lengthAdjust="spacing" textLength="121.4635" x="738.5" y="719.5118">&#24050;&#38144;&#27585; (Destroyed)</text></g><g id="AdminAudit"><rect fill="#F1F1F1" height="50" rx="12.5" ry="12.5" style="stroke:#181818;stroke-width:0.5;" width="97.3637" x="859.5" y="48.2719"/><line style="stroke:#181818;stroke-width:0.5;" x1="859.5" x2="956.8637" y1="78.5438" y2="78.5438"/><text fill="#000000" font-family="sans-serif" font-size="14" lengthAdjust="spacing" textLength="77.3637" x="869.5" y="69.5118">AdminAudit</text></g><ellipse cx="814" cy="73.2719" fill="#222222" rx="10" ry="10" style="stroke:#222222;stroke-width:1;"/><ellipse cx="799" cy="858.2719" fill="none" rx="11" ry="11" style="stroke:#222222;stroke-width:1;"/><ellipse cx="799" cy="858.2719" fill="#222222" rx="6" ry="6" style="stroke:#222222;stroke-width:1;"/><g class="entity" data-entity="GMN2" data-source-line="29" data-uid="ent0003" id="entity_GMN2"><path d="M467.5,495.2719 L467.5,543.2719 L207.08,547.2719 L467.5,551.2719 L467.5,599.392 A0,0 0 0 0 467.5,599.392 L600.8461,599.392 A0,0 0 0 0 600.8461,599.392 L600.8461,505.2719 L590.8461,495.2719 L467.5,495.2719 A0,0 0 0 0 467.5,495.2719" fill="#FEFFDD" style="stroke:#181818;stroke-width:0.5;"/><path d="M590.8461,495.2719 L590.8461,505.2719 L600.8461,505.2719 L590.8461,495.2719" fill="#FEFFDD" style="stroke:#181818;stroke-width:0.5;"/><text fill="#000000" font-family="sans-serif" font-size="13" lengthAdjust="spacing" textLength="52.0001" x="473.5" y="515.3519">&#20851;&#38190;&#28857;&#65306;</text><text fill="#000000" font-family="sans-serif" font-size="13" lengthAdjust="spacing" textLength="104.0001" x="473.5" y="534.1759">&#36827;&#20837;&#27492;&#29366;&#24577;&#24847;&#21619;&#30528;</text><text fill="#000000" font-family="sans-serif" font-size="13" lengthAdjust="spacing" textLength="90.3241" x="473.5" y="553">"&#25968;&#25454;&#24050;&#22266;&#21270;"&#12290;</text><text fill="#000000" font-family="sans-serif" font-size="13" lengthAdjust="spacing" textLength="103.7531" x="473.5" y="571.824">Award&#34920;&#24050;&#29983;&#25104;&#65292;</text><text fill="#000000" font-family="sans-serif" font-size="13" lengthAdjust="spacing" textLength="112.3461" x="473.5" y="590.648">Team&#34920;&#38543;&#26102;&#21487;&#21024;&#12290;</text></g><!--link *start* to Draft--><g class="link" data-entity-1=".start." data-entity-2="Draft" data-source-line="9" data-uid="lnk3" id="link_.start._Draft"><path d="M814,83.4719 C814,105.9019 814,158.0519 814,191.2019" fill="none" id="*start*-to-Draft" style="stroke:#181818;stroke-width:1;"/><polygon fill="#181818" points="814,197.2019,818,188.2019,814,192.2019,810,188.2019,814,197.2019" style="stroke:#181818;stroke-width:1;"/><text fill="#000000" font-family="sans-serif" font-size="13" lengthAdjust="spacing" textLength="78.0001" x="823.567" y="144.3519">&#23398;&#29983;&#32452;&#38431;&#25253;&#21517;</text><text fill="#000000" font-family="sans-serif" font-size="13" lengthAdjust="spacing" textLength="95.1341" x="815" y="163.1759">(&#21019;&#24314;Team&#35760;&#24405;)</text></g><!--link Draft to Submitted--><g class="link" data-entity-1="Draft" data-entity-2="Submitted" data-source-line="11" data-uid="lnk4" id="link_Draft_Submitted"><path d="M792.37,247.5419 C768.1,274.7819 732.9424,314.233 708.6524,341.483" fill="none" id="Draft-to-Submitted" style="stroke:#181818;stroke-width:1;"/><polygon fill="#181818" points="704.66,345.9619,713.6346,341.9051,707.987,342.2295,707.6627,336.5819,704.66,345.9619" style="stroke:#181818;stroke-width:1;"/><text fill="#000000" font-family="sans-serif" font-size="13" lengthAdjust="spacing" textLength="127.2961" x="776.5105" y="293.3519">&#38431;&#38271;&#19978;&#20256;&#20316;&#21697; (Works)</text><text fill="#000000" font-family="sans-serif" font-size="13" lengthAdjust="spacing" textLength="148.3171" x="766" y="312.1759">&#25110;&#19978;&#20256;&#35777;&#20070; (Attachment)</text></g><!--link Rejected to Submitted--><g class="link" data-entity-1="Rejected" data-entity-2="Submitted" data-source-line="12" data-uid="lnk5" id="link_Rejected_Submitted"><path d="M693.64,522.1619 C688.58,506.2319 682.6,484.7719 680,465.2719 C677.71,448.0919 679.52,443.6019 680,426.2719 C680.27,416.5119 680.4665,411.7615 681.0165,402.4415" fill="none" id="Rejected-to-Submitted" style="stroke:#181818;stroke-width:1;"/><polygon fill="#181818" points="681.37,396.4519,676.8468,405.2006,681.0754,401.4432,684.8329,405.6719,681.37,396.4519" style="stroke:#181818;stroke-width:1;"/><text fill="#000000" font-family="sans-serif" font-size="13" lengthAdjust="spacing" textLength="130.0002" x="681" y="451.8519">&#23398;&#29983;&#20462;&#25913;&#36164;&#26009;&#37325;&#26032;&#25552;&#20132;</text></g><!--link Submitted to Rejected--><g class="link" data-entity-1="Submitted" data-entity-2="Rejected" data-source-line="16" data-uid="lnk7" id="link_Submitted_Rejected"><path d="M610.91,385.4519 C588.21,393.3719 565.55,406.0319 552,426.2719 C542.36,440.6719 542.62,450.7019 552,465.2719 C569.44,492.3619 589.51,480.2219 618,495.2719 C633.54,503.4819 645.0651,510.1892 659.3951,519.0392" fill="none" id="Submitted-to-Rejected" style="stroke:#181818;stroke-width:1;"/><polygon fill="#181818" points="664.5,522.1919,658.9444,514.0595,660.2459,519.5646,654.7408,520.8661,664.5,522.1919" style="stroke:#181818;stroke-width:1;"/><text fill="#000000" font-family="sans-serif" font-size="13" lengthAdjust="spacing" textLength="65.0001" x="579.442" y="442.3519">&#31649;&#29702;&#21592;&#39539;&#22238;</text><text fill="#000000" font-family="sans-serif" font-size="13" lengthAdjust="spacing" textLength="117.8841" x="553" y="461.1759">(&#36164;&#26009;&#19981;&#20840;/&#32534;&#21495;&#38169;&#35823;)</text></g><!--link Submitted to Approved--><g class="link" data-entity-1="Submitted" data-entity-2="Approved" data-source-line="15" data-uid="lnk6" id="link_Submitted_Approved"><path d="M610.82,383.1519 C555.95,392.2719 478.93,406.9119 413,426.2719 C321.97,452.9919 225.6084,493.1976 165.3884,519.7976" fill="none" id="Submitted-to-Approved" style="stroke:#181818;stroke-width:1;"/><polygon fill="#181818" points="159.9,522.2219,169.7488,522.2444,164.4737,520.2017,166.5164,514.9265,159.9,522.2219" style="stroke:#181818;stroke-width:1;"/><text fill="#000000" font-family="sans-serif" font-size="13" lengthAdjust="spacing" textLength="91.0001" x="429.652" y="442.3519">&#31649;&#29702;&#21592;&#23457;&#26680;&#36890;&#36807;</text><text fill="#000000" font-family="sans-serif" font-size="13" lengthAdjust="spacing" textLength="122.3041" x="414" y="461.1759">(&#26657;&#39564;cert_no &amp; &#38468;&#20214;)</text></g><!--link Approved to Approved--><g class="link" data-entity-1="Approved" data-entity-2="Approved" data-source-line="19" data-uid="lnk8" id="link_Approved_Approved"><path d="M207.09,529.2419 C227.43,531.2019 242,537.2119 242,547.2719 C242,557.3319 233.4023,562.7664 213.0623,564.7264" fill="none" id="Approved-to-Approved" style="stroke:#181818;stroke-width:1;"/><polygon fill="#181818" points="207.09,565.3019,216.4322,568.4202,212.0669,564.8223,215.6648,560.4571,207.09,565.3019" style="stroke:#181818;stroke-width:1;"/><text fill="#000000" font-family="sans-serif" font-size="13" font-weight="bold" lengthAdjust="spacing" textLength="104.0001" x="291.8035" y="524.8519">&#31995;&#32479;&#33258;&#21160;&#35302;&#21457;&#21160;&#20316;</text><text fill="#000000" font-family="sans-serif" font-size="13" lengthAdjust="spacing" textLength="3.614" x="395.8036" y="524.8519">:</text><text fill="#000000" font-family="sans-serif" font-size="13" lengthAdjust="spacing" textLength="195.2212" x="248" y="543.6759">1. &#21019;&#24314; Certificate (&#29289;&#29702;&#25991;&#20214;&#25335;&#36125;)</text><text fill="#000000" font-family="sans-serif" font-size="13" lengthAdjust="spacing" textLength="145.1061" x="273.0575" y="562.5">2. &#21019;&#24314; Award (&#27704;&#20037;&#24402;&#26723;)</text><text fill="#000000" font-family="sans-serif" font-size="13" lengthAdjust="spacing" textLength="133.3021" x="278.9595" y="581.324">3. &#20851;&#32852; Team -&gt; Award</text></g><!--link Approved to EndState--><g class="link" data-entity-1="Approved" data-entity-2="EndState" data-source-line="21" data-uid="lnk9" id="link_Approved_EndState"><path d="M202.49,572.2819 C343.2,607.6619 597.2211,671.539 722.2811,702.979" fill="none" id="Approved-to-EndState" style="stroke:#181818;stroke-width:1;"/><polygon fill="#181818" points="728.1,704.4419,720.3468,698.3683,723.2509,703.2228,718.3963,706.1269,728.1,704.4419" style="stroke:#181818;stroke-width:1;"/><text fill="#000000" font-family="sans-serif" font-size="13" lengthAdjust="spacing" textLength="108.7191" x="577" y="645.3519">&#36187;&#20107;&#24402;&#26723; (Archive)</text><text fill="#000000" font-family="sans-serif" font-size="13" lengthAdjust="spacing" textLength="78.0001" x="592.3595" y="664.1759">&#35302;&#21457;&#28165;&#29702;&#36923;&#36753;</text></g><!--link Draft to EndState--><g class="link" data-entity-1="Draft" data-entity-2="EndState" data-source-line="22" data-uid="lnk10" id="link_Draft_EndState"><path d="M860.6,233.9819 C883.61,241.8719 909.3,255.2019 923,277.2719 C932.14,292.0019 923.49,298.9419 923,316.2719 C919.44,442.2019 951.41,481.3819 907,599.2719 C891.72,639.8219 860.8762,671.8079 834.7462,694.1979" fill="none" id="Draft-to-EndState" style="stroke:#181818;stroke-width:1;"/><polygon fill="#181818" points="830.19,698.1019,839.6269,695.2833,833.9868,694.8486,834.4215,689.2084,830.19,698.1019" style="stroke:#181818;stroke-width:1;"/><text fill="#000000" font-family="sans-serif" font-size="13" lengthAdjust="spacing" textLength="52.0001" x="932" y="451.8519">&#36187;&#20107;&#24402;&#26723;</text></g><!--link Submitted to EndState--><g class="link" data-entity-1="Submitted" data-entity-2="EndState" data-source-line="23" data-uid="lnk11" id="link_Submitted_EndState"><path d="M755.12,384.8419 C778.51,392.7119 802.01,405.4919 816,426.2719 C873.49,511.6719 832.9962,638.7162 811.5562,692.6562" fill="none" id="Submitted-to-EndState" style="stroke:#181818;stroke-width:1;"/><polygon fill="#181818" points="809.34,698.2319,816.3815,691.3458,811.1868,693.5855,808.9472,688.3909,809.34,698.2319" style="stroke:#181818;stroke-width:1;"/><text fill="#000000" font-family="sans-serif" font-size="13" lengthAdjust="spacing" textLength="52.0001" x="846" y="553.3519">&#36187;&#20107;&#24402;&#26723;</text></g><!--link Rejected to EndState--><g class="link" data-entity-1="Rejected" data-entity-2="EndState" data-source-line="24" data-uid="lnk12" id="link_Rejected_EndState"><path d="M711.51,572.4919 C721.66,597.2919 738.87,636.5819 758,668.2719 C764.14,678.4519 768.1327,684.2686 775.1827,693.3186" fill="none" id="Rejected-to-EndState" style="stroke:#181818;stroke-width:1;"/><polygon fill="#181818" points="778.87,698.0519,776.4946,688.4938,775.7973,694.1075,770.1836,693.4101,778.87,698.0519" style="stroke:#181818;stroke-width:1;"/><text fill="#000000" font-family="sans-serif" font-size="13" lengthAdjust="spacing" textLength="52.0001" x="759" y="654.8519">&#36187;&#20107;&#24402;&#26723;</text></g><!--link EndState to *end*--><g class="link" data-entity-1="EndState" data-entity-2=".end." data-source-line="26" data-uid="lnk14" id="link_EndState_.end."><path d="M799,748.3619 C799,777.7019 799,819.9519 799,840.9619" fill="none" id="EndState-to-*end*" style="stroke:#181818;stroke-width:1;"/><polygon fill="#181818" points="799,846.9619,803,837.9619,799,841.9619,795,837.9619,799,846.9619" style="stroke:#181818;stroke-width:1;"/><text fill="#000000" font-family="sans-serif" font-size="13" lengthAdjust="spacing" textLength="117.0001" x="819.3765" y="794.3519">&#25968;&#25454;&#24211;&#35760;&#24405;&#29289;&#29702;&#21024;&#38500;</text><text fill="#000000" font-family="sans-serif" font-size="13" lengthAdjust="spacing" textLength="155.7532" x="800" y="813.1759">&#20445;&#30041;&#32479;&#35745;&#25968;&#25454;&#19982;Award&#35760;&#24405;</text></g><!--SRC=[TLHTRn9157sVNp7XmG19RTItFfWGzGzO4n_468IjNPMbMROrnfX00q9fAM1XBQKje6sbDGLIRFakFyQTcTsd_WNlCjqjhNQVPkQUU-RSS- -i8Yhl1Sn-xUgd9LBwRcoMIRp6ycMI6v9SZMwNMUgCHg9qkuTGMF4f0dRewHLM6s7dOzatfxWSs1V6uwKL9-TnKg_IIWSxPnTV1qL54G8SPczjQFj4Ns-JVNMQPnYHBNsKm4xFme8SMhBIhDr4bd7O8gLTx7mgl1NyDh-rcmJc8xGH1R52M9537ota4oamQs8GUk5-YQUc7l8Iy0mcnmTGFkl7m0gQsYVPj5ToacI9z7lF15zGhpV9iE12YEFDJBigo8Oaep3IEYbjKD66ssG3hduUaj-5NLw99bKUq1jHhNi0LIgAppyV52J5XIpf_p1oFTgeJlDT_JH6rQAHI5ErIJDPhRTdDSKJ28gIPp4WAlWJml1TKPY4beF0n-fLblr2SfkJZaE9j58rZjRyWgoyaaBu3ZQACQr_vleFcIrrWept0sYuHAsJXZ6QPWELPDf6lgWt6Yxq6I5RnmrHRZThzLc_h2UEIAgc_pmWcHmim46tUyOhtRkBUGVm8z0dpeb-isOdMpc4swcQ0A5qjQt_tW6NxzjOpmUV7C1EsknetJWPVgNL7n1_0F5uIu_ciTbEREemSJUqMVC1sk1XQBrLdWyza_tpuf80H5mbxSH1Wn7fw-UvYPcu9HzTT_8srBLXk0s4x829CiTu1jD2awRhfBV1nvGRH98LexZdbRJH3YiKJPUXysEWrbaV5y_H24aXO9F5D_CA3irTFJjiEcRawsovUp7OWgq-Af7uFZtUk_mvn38ars8x4GWvBYMqJqYfHzPKnv_8CXppQwerE8TffidinM0DZiSlgbepjZBqsnd9D42gYHUa03QreBy0]--></g></svg>